<svg xmlns="http://www.w3.org/2000/svg" viewBox="0 0 64 64" width="64" height="64" role="img" aria-label="AutoCare">
  <defs>
    <linearGradient id="faviconAutocare" x1="0" y1="0" x2="1" y2="1">
      <stop offset="0" stop-color="#3b82f6" />
      <stop offset="1" stop-color="#1e3a8a" />
    </linearGradient>
  </defs>
  <rect width="64" height="64" rx="14" fill="url(#faviconAutocare)" />
  <path
    fill="#ffffff"
    d="M12 40c0-2 1.2-3.6 3.2-4l4.4-.9 6-7.6c1.4-1.8 3.4-2.8 5.6-2.8h11c2.2 0 4.3 1.1 5.6 3l4.4 7.4 4.4.9c2 .4 3.4 2 3.4 4v4.6c0 1.3-1 2.4-2.3 2.4h-3.9a6 6 0 0 0-12 0H29a6 6 0 0 0-12 0h-2.7A2.3 2.3 0 0 1 12 44.6z"
  />
  <circle cx="23" cy="47" r="4.6" fill="#ffffff" />
  <circle cx="23" cy="47" r="2" fill="#1e3a8a" />
  <circle cx="41" cy="47" r="4.6" fill="#ffffff" />
  <circle cx="41" cy="47" r="2" fill="#1e3a8a" />
</svg>
